/vscmnt/brussel_pixiu_data/_data_brussel/112/vsc11236/PredSimResults/SUBJ06mtu3D/worker7.mot
version=1
nRows=10
nColumns=50
inDegrees=yes
endheader
                time	         pelvis_tilt	         pelvis_list	     pelvis_rotation	           pelvis_tx	           pelvis_ty	           pelvis_tz	       hip_flexion_r	     hip_adduction_r	      hip_rotation_r	        knee_angle_r	       ankle_angle_r	         mtp_angle_r	       hip_flexion_l	     hip_adduction_l	      hip_rotation_l	        knee_angle_l	       ankle_angle_l	         mtp_angle_l	    lumbar_extension	      lumbar_bending	     lumbar_rotation	 ercspn_r/activation	 intobl_r/activation	 extobl_r/activation	    abd_r/activation	    add_r/activation	hamstrings_r/activation	bifemsh_r/activation	glut_max_r/activation	iliopsoas_r/activation	rect_fem_r/activation	  vasti_r/activation	gastroc_r/activation	 soleus_r/activation	tib_ant_r/activation	 ercspn_l/activation	 intobl_l/activation	 extobl_l/activation	    abd_l/activation	    add_l/activation	hamstrings_l/activation	bifemsh_l/activation	glut_max_l/activation	iliopsoas_l/activation	rect_fem_l/activation	  vasti_l/activation	gastroc_l/activation	 soleus_l/activation	tib_ant_l/activation	
          1.23057911	         -7.35587872	         -0.78430204	          3.81492054	          1.37824861	          0.93067115	         -0.00918196	         31.21957577	         -0.18297725	         -2.53797527	         -4.99559814	         -0.46758366	          0.23725854	        -10.94183457	          0.22345208	         -1.22413745	         -7.85058772	          5.68724879	         35.14906566	         -4.42455355	         -0.74977559	         -1.58346857	          0.15661345	          0.14199827	          0.00999999	          0.00999999	          0.23045024	          0.20127502	          0.24392608	          0.05350576	          0.17066639	          0.00999999	          0.00999999	          0.02109050	          0.01452256	          0.41134530	          0.11621833	          0.00999999	          0.00999999	          0.06424775	          0.00999999	          0.01000000	          0.15276688	          0.04397064	          0.51701669	          0.01205096	          0.00999999	          0.37962061	          0.29510543	          0.02109050	
          1.24288491	         -7.43270613	         -0.74838231	          3.87477236	          1.39481450	          0.92899082	         -0.00840406	         31.32311458	         -0.09237259	         -2.34103521	         -6.86035752	         -0.81890315	          0.20300387	        -11.13383294	          0.14404785	         -1.59575368	         -9.14262169	          4.84638228	         37.01404563	         -4.12660964	         -0.47164974	         -1.91719113	          0.12995926	          0.11783145	          0.00999999	          0.01590523	          0.19122969	          0.18631599	          0.20241207	          0.08928984	          0.14162051	          0.00999999	          0.00999999	          0.01750109	          0.01205095	          0.48729180	          0.10843742	          0.00999999	          0.00999999	          0.05331337	          0.01205095	          0.02581620	          0.12676734	          0.03648724	          0.50566840	          0.01000000	          0.01872941	          0.34959851	          0.27933390	          0.01750109	
          1.25519070	         -7.49301694	         -0.73067740	          3.90331803	          1.41164109	          0.92763215	         -0.00749911	         31.25148665	          0.00330647	         -2.21348605	         -8.43839464	         -1.28562657	          0.18829389	        -11.11006550	          0.02562690	         -1.98767938	        -10.85455139	          3.86304916	         38.93579773	         -3.82542405	         -0.17345944	         -2.23453139	          0.13971705	          0.09777760	          0.00999999	          0.06359622	          0.19977162	          0.16538949	          0.16796337	          0.11415127	          0.11751798	          0.00999999	          0.00999999	          0.01452256	          0.00999999	          0.57292665	          0.10711250	          0.00999999	          0.00999999	          0.04423992	          0.00999999	          0.02142256	          0.10519268	          0.03027744	          0.49012550	          0.00999999	          0.01750109	          0.30931775	          0.25888489	          0.01452256	
          1.26749649	         -7.53529869	         -0.71401008	          3.90317077	          1.42852710	          0.92668455	         -0.00647937	         31.08911958	          0.10278491	         -2.15354671	         -9.88308966	         -1.75396944	          0.15916267	        -10.80445473	         -0.11811838	         -2.40107387	        -13.07852907	          2.70706473	         40.86660334	         -3.54705362	          0.12556873	         -2.53053166	          0.15359289	          0.08113674	          0.00999999	          0.12127329	          0.25011533	          0.15041574	          0.13937752	          0.15822400	          0.09751749	          0.00999999	          0.00999999	          0.01205095	          0.00999999	          0.61703696	          0.14288967	          0.00999999	          0.00999999	          0.03671068	          0.03489572	          0.03012290	          0.08728984	          0.02512449	          0.45982350	          0.00999999	          0.01452256	          0.25667467	          0.23252402	          0.01205095	
          1.27980228	         -7.55812354	         -0.70568954	          3.88050586	          1.44530901	          0.92624313	         -0.00536974	         30.90146909	          0.21586764	         -2.12106107	        -11.36491511	         -1.89386624	          0.12000397	        -10.16768960	         -0.30114407	         -2.83935448	        -15.87249600	          1.34868378	         42.67878561	         -3.30437353	          0.43348379	         -2.80405302	          0.16138779	          0.06732800	          0.00999999	          0.17143868	          0.27921755	          0.13136506	          0.11565673	          0.21167715	          0.08092089	          0.00999999	          0.00999999	          0.00999999	          0.00999999	          0.62206088	          0.18455988	          0.00999999	          0.00999999	          0.03046286	          0.08322159	          0.03371455	          0.07243390	          0.02084853	          0.41687984	          0.00999999	          0.01205095	          0.21299096	          0.19295054	          0.00999999	
          1.29210807	         -7.56136271	         -0.71016204	          3.83816201	          1.46182423	          0.92640472	         -0.00419328	         30.73967418	          0.34859227	         -2.08694656	        -12.98450752	         -1.53974478	          0.09558413	         -9.17726544	         -0.53442303	         -3.31174471	        -19.24337619	         -0.19466273	         44.05676174	         -3.10756712	          0.75375502	         -3.05323200	          0.16976250	          0.05586938	          0.00999999	          0.20453310	          0.29373552	          0.11596802	          0.09597300	          0.22800850	          0.06714889	          0.00999999	          0.04231472	          0.00999999	          0.00999999	          0.55151427	          0.21687330	          0.00999999	          0.00999999	          0.02527835	          0.16160384	          0.03366444	          0.06010631	          0.01730030	          0.35353727	          0.00999999	          0.00999999	          0.17674183	          0.16011210	          0.00999999	
          1.30441386	         -7.54717088	         -0.72224296	          3.78020780	          1.47801357	          0.92721280	         -0.00298546	         30.54901088	          0.49853121	         -2.02852352	        -14.62267472	         -0.71273651	          0.14939099	         -7.85505765	         -0.82044679	         -3.83722675	        -23.14095644	         -1.79247071	         44.44828491	         -2.95331882	          1.07949781	         -3.27812117	          0.16626244	          0.04636092	          0.00999999	          0.22296901	          0.27386288	          0.10439193	          0.07963927	          0.21490508	          0.05572076	          0.00999999	          0.10455704	          0.00999999	          0.00999999	          0.45765153	          0.23722484	          0.00999999	          0.00999999	          0.02097621	          0.20869591	          0.02793506	          0.05759949	          0.01435594	          0.29336843	          0.00999999	          0.00999999	          0.14666197	          0.13286247	          0.00999999	
          1.31671965	         -7.52015750	         -0.73255764	          3.70688651	          1.49388376	          0.92868860	         -0.00178083	         30.21206230	          0.65893703	         -1.94164818	        -16.03775672	          0.43182898	          0.33342209	         -6.25227784	         -1.15811403	         -4.41752616	        -27.42752493	         -3.51339050	         43.71279323	         -2.83171293	          1.39971952	         -3.47551681	          0.15694328	          0.03847071	          0.00999999	          0.22361281	          0.22725390	          0.09506460	          0.06608538	          0.19586681	          0.04623759	          0.00999999	          0.12725967	          0.00999999	          0.00999999	          0.37976338	          0.23077799	          0.00999999	          0.00999999	          0.01740625	          0.20013581	          0.02318077	          0.06792668	          0.01191269	          0.24343978	          0.00999999	          0.00999999	          0.12170143	          0.11025048	          0.00999999	
          1.32902544	         -7.48485434	         -0.72928025	          3.61920640	          1.50943710	          0.93074655	         -0.00060637	         29.68570870	          0.81481332	         -1.83553841	        -17.09494018	          1.58026951	          0.62061897	         -4.43434447	         -1.54193920	         -5.04717881	        -31.90366123	         -5.51339657	         42.00479475	         -2.73806131	          1.70148335	         -3.64246844	          0.14248281	          0.03192334	          0.00999999	          0.21619571	          0.18857734	          0.09062012	          0.05483825	          0.16855126	          0.03836837	          0.00999999	          0.14692520	          0.00999999	          0.00999999	          0.31513109	          0.22130363	          0.00999999	          0.00999999	          0.01444386	          0.19232440	          0.01923562	          0.08988302	          0.00999999	          0.20200853	          0.00999999	          0.00999999	          0.10098895	          0.09148685	          0.00999999	
          1.34133123	         -7.44447452	         -0.70164712	          3.51856361	          1.52468571	          0.93323847	          0.00052469	         28.96095095	          0.95189739	         -1.71324830	        -17.74430241	          2.56016603	          0.97470221	         -2.47240085	         -1.96511266	         -5.72202975	        -36.40017846	         -7.71273248	         39.25657710	         -2.66987606	          1.97150565	         -3.77774099	          0.11823352	          0.02649028	          0.00999999	          0.21170228	          0.15648319	          0.08845487	          0.04550528	          0.14276810	          0.03183842	          0.00999999	          0.16264908	          0.00999999	          0.00999999	          0.27424904	          0.22234374	          0.00999999	          0.00999999	          0.01198565	          0.18334442	          0.01596189	          0.10761215	          0.00999999	          0.16762851	          0.00999999	          0.00999999	          0.08380154	          0.07591661	          0.06123483	
